# xmcd
#
# Track frame offsets:
#	150
#	18075
#	31008
#	50499
#	62481
#	79190
#	92756
#	118878
#	137840
#	152526
#	170345
#	185409
#	197490
#
# Disc length: 2856 seconds
# Revision: 0
# Processed by: cddbd v1.5.2PL0 Copyright (c) Steve Scherf et al.
# Submitted via: dBpowerAMP V12.0
#
DISCID=9d0b260d
DTITLE=The Candeliers - The Candeliers
DYEAR=2009
DGENRE=Country
TTITLE0=St. Joan Antida
TTITLE1=Jacob's Ladder
TTITLE2=Brighton Beach
TTITLE3=Grace Avenue
TTITLE4=Northern Room
TTITLE5=Floating Above
TTITLE6=Only You
TTITLE7=Bittersweet Sounds
TTITLE8=Corridor of Kings
TTITLE9=June Bug Park
TTITLE10=Mr. Washington
TTITLE11=Wreath of Roses
TTITLE12=Some Zenith Time
EXTD=
EXTT0=
EXTT1=
EXTT2=
EXTT3=
EXTT4=
EXTT5=
EXTT6=
EXTT7=
EXTT8=
EXTT9=
EXTT10=
EXTT11=
EXTT12=
PLAYORDER=
